<svg data-v-423bf9ae="" xmlns="http://www.w3.org/2000/svg" viewBox="0 0 431 90" class="iconLeftSlogan"><!----><!----><!----><g data-v-423bf9ae="" id="8703d6b0-b3f4-4599-9d9e-33be31990e85" fill="#000000" transform="matrix(4.559270569581267,0,0,4.559270569581267,106.76142148169242,-2.0516725828957405)"><path d="M3.63 3.36C1.54 3.36 0.71 4.34 0.71 6.87C0.71 9.62 1.37 10.64 3.60 10.64C4.24 10.64 5.54 10.44 5.54 10.44L5.50 9.58C5.50 9.58 4.38 9.70 3.85 9.70C2.11 9.70 1.79 8.95 1.79 6.87C1.79 5.00 2.23 4.30 3.84 4.30C4.37 4.30 5.49 4.42 5.49 4.42L5.53 3.57C5.53 3.57 4.27 3.36 3.63 3.36ZM7.20 10.50L8.25 10.50L8.25 0.45L7.20 0.45ZM13.03 3.36C10.82 3.36 10.04 4.51 10.04 6.92C10.04 9.46 10.68 10.64 13.03 10.64C15.40 10.64 16.03 9.46 16.03 6.92C16.03 4.51 15.26 3.36 13.03 3.36ZM13.03 9.73C11.38 9.73 11.12 8.90 11.12 6.92C11.12 4.97 11.55 4.27 13.03 4.27C14.53 4.27 14.95 4.97 14.95 6.92C14.95 8.90 14.70 9.73 13.03 9.73ZM22.11 3.50L22.11 9.18C22.11 9.18 21.22 9.70 20.19 9.70C18.89 9.70 18.72 9.07 18.72 7.14L18.72 3.50L17.67 3.50L17.67 7.15C17.67 9.73 18.07 10.64 20.03 10.64C21.06 10.64 22.11 10.01 22.11 10.01L22.11 10.50L23.16 10.50L23.16 3.50ZM30.55 0.45L29.51 0.45L29.51 3.54C29.30 3.50 28.39 3.36 27.79 3.36C25.66 3.36 24.86 4.59 24.86 7.06C24.86 10.08 26.01 10.64 27.38 10.64C28.43 10.64 29.51 10.02 29.51 10.02L29.51 10.50L30.55 10.50ZM27.51 9.70C26.68 9.70 25.94 9.32 25.94 7.06C25.94 5.24 26.38 4.27 27.85 4.27C28.42 4.27 29.29 4.40 29.51 4.44L29.51 9.18C29.51 9.18 28.50 9.70 27.51 9.70ZM37.25 3.63C37.25 3.63 35.77 3.36 34.72 3.36C33.45 3.36 32.20 3.86 32.20 5.40C32.20 6.80 32.96 7.10 34.54 7.35C36.06 7.59 36.43 7.77 36.43 8.50C36.43 9.45 35.81 9.70 34.66 9.70C33.95 9.70 32.35 9.46 32.35 9.46L32.30 10.37C32.30 10.37 33.87 10.64 34.76 10.64C36.44 10.64 37.48 10.09 37.48 8.46C37.48 7.10 36.82 6.75 35.07 6.45C33.59 6.20 33.25 6.02 33.25 5.36C33.25 4.54 33.91 4.30 34.78 4.30C35.67 4.30 37.23 4.52 37.23 4.52ZM41.41 10.64C42.41 10.64 43.39 10.18 43.39 10.18L43.39 13.61L44.42 13.61L44.42 3.50C44.42 3.50 42.81 3.36 42.08 3.36C39.62 3.36 38.78 4.35 38.78 7.11C38.78 9.59 39.51 10.64 41.41 10.64ZM42.10 4.27C42.52 4.27 43.39 4.35 43.39 4.35L43.39 9.30C43.39 9.30 42.49 9.70 41.52 9.70C40.29 9.70 39.84 8.86 39.84 7.11C39.84 5.18 40.26 4.27 42.10 4.27ZM50.82 3.50L50.82 9.18C50.82 9.18 49.94 9.70 48.90 9.70C47.60 9.70 47.43 9.07 47.43 7.14L47.43 3.50L46.38 3.50L46.38 7.15C46.38 9.73 46.79 10.64 48.75 10.64C49.77 10.64 50.82 10.01 50.82 10.01L50.82 10.50L51.87 10.50L51.87 3.50ZM58.83 5.61C58.83 4.09 58.16 3.36 56.57 3.36C55.37 3.36 53.83 3.67 53.83 3.67L53.87 4.47C53.87 4.47 55.54 4.28 56.52 4.28C57.36 4.28 57.78 4.63 57.78 5.61L57.78 6.22L55.58 6.43C54.14 6.57 53.44 7.15 53.44 8.50C53.44 9.91 54.14 10.64 55.41 10.64C56.67 10.64 57.93 10.08 57.93 10.08C58.35 10.50 58.86 10.64 59.60 10.64L59.64 9.81C59.19 9.76 58.86 9.60 58.83 9.20ZM57.78 7.01L57.78 9.32C57.78 9.32 56.62 9.76 55.58 9.76C54.87 9.76 54.52 9.28 54.52 8.47C54.52 7.70 54.85 7.29 55.71 7.21ZM60.90 10.50L61.95 10.50L61.95 5.36C61.95 5.36 63.18 4.68 64.50 4.41L64.50 3.35C63.15 3.61 61.94 4.45 61.94 4.45L61.94 3.50L60.90 3.50ZM68.19 9.72C66.82 9.72 66.36 8.93 66.36 7.43L70.98 7.43L71.04 6.64C71.04 4.34 70.08 3.36 68.22 3.36C66.44 3.36 65.30 4.38 65.30 7.04C65.30 9.42 65.98 10.64 68.07 10.64C69.20 10.64 70.80 10.42 70.80 10.42L70.77 9.59C70.77 9.59 69.24 9.72 68.19 9.72ZM66.35 6.59C66.36 4.90 67.03 4.24 68.22 4.24C69.45 4.24 69.99 4.86 69.99 6.59Z"></path></g><defs data-v-423bf9ae=""><linearGradient data-v-423bf9ae="" gradientTransform="rotate(25)" id="79156d2b-5777-44ea-8374-6501d91efd66" x1="0%" y1="0%" x2="100%" y2="0%"><stop data-v-423bf9ae="" offset="0%" style="stop-color: rgb(8, 199, 214); stop-opacity: 1;"></stop><stop data-v-423bf9ae="" offset="100%" style="stop-color: rgb(2, 2, 62); stop-opacity: 1;"></stop></linearGradient></defs><g data-v-423bf9ae="" id="c81646f8-37f1-48a8-b21c-329ff5b1661a" transform="matrix(1.4957620531630733,0,0,1.4957620531630733,-21.39403949633062,-21.394291004015415)" stroke="none" fill="url(#79156d2b-5777-44ea-8374-6501d91efd66)"><path d="M75.084 75.02l-25.081-.001V63.917h13.979l.001-13.85 11.102.001zM39.998 26.082H26.017v13.85H14.916V14.98l25.082.001zM75.019 39.998H63.918l-.001-13.98-13.849-.001V14.915l24.952.001zM39.932 75.085H14.98l.001-25.082h11.102l-.001 13.979 13.85.001z"></path></g><!----><g data-v-423bf9ae="" id="cc74163d-afbe-4b1d-949a-f7dc3934f588" fill="#000000" transform="matrix(0.899732802024549,0,0,0.899732802024549,109.34169928022732,57.28280859490621)"><path d="M0.73 5.77C0.73 9.07 5.71 8.20 5.71 10.65C5.71 11.59 4.87 12.31 3.89 12.31C3.07 12.31 1.47 11.83 1.44 11.47L1.36 10.15C1.34 9.97 1.27 9.91 1.09 9.91L1.02 9.91C0.81 9.91 0.81 10.00 0.81 10.12C0.81 10.32 0.92 11.66 0.95 12.17C0.97 12.38 2.23 12.85 3.77 12.85C5.33 12.85 6.94 11.87 6.94 10.11C6.94 6.79 1.97 7.87 1.97 5.32C1.97 4.31 2.76 3.56 3.79 3.56C4.82 3.56 5.91 4.58 5.91 4.89C5.91 5.01 5.87 5.73 5.87 5.78C5.87 5.92 5.91 5.99 6.17 5.99C6.41 5.99 6.43 5.94 6.43 5.75C6.43 5.04 6.51 3.68 6.51 3.53C6.51 3.30 6.47 3.29 6.20 3.29C5.98 3.29 5.96 3.32 5.95 3.53C5.95 3.61 5.94 3.78 5.89 3.78C5.84 3.78 5.75 3.74 5.68 3.68C4.89 3.14 4.27 3.08 3.77 3.08C2.24 3.08 0.73 4.17 0.73 5.77ZM14.78 10.01C14.78 11.68 15.75 12.85 17.51 12.85C18.97 12.85 19.96 11.56 19.96 11.48C19.96 11.45 19.73 11.24 19.68 11.24C19.60 11.24 19.01 12.15 17.84 12.15C16.83 12.15 15.83 11.33 15.83 9.88C15.83 9.72 15.85 9.49 15.88 9.42C16.09 9.42 18.84 9.49 19.00 9.49C19.14 9.49 19.80 9.46 19.80 9.28C19.80 8.09 19.08 7.01 17.67 7.01C15.96 7.01 14.78 8.33 14.78 10.01ZM15.90 9.03C15.96 8.34 16.60 7.41 17.50 7.41C17.93 7.41 18.75 7.70 18.75 8.99C18.75 9.04 18.58 9.03 18.23 9.04C17.53 9.07 16.10 9.10 16.03 9.10C15.92 9.10 15.90 9.09 15.90 9.03ZM27.78 10.12C27.78 11.73 28.80 12.78 30.46 12.78C31.85 12.78 32.72 11.90 32.72 11.82C32.72 11.68 32.68 11.66 32.58 11.66C32.51 11.66 31.85 12.08 30.88 12.08C29.47 12.08 28.77 10.93 28.77 9.77C28.77 8.68 29.46 7.43 30.62 7.43C31.47 7.43 31.50 8.04 31.72 8.68C31.77 8.82 31.88 8.86 32.00 8.86C32.14 8.86 32.33 8.76 32.45 8.67C32.58 8.57 32.61 8.48 32.61 8.36C32.61 7.60 31.63 6.97 30.70 6.97C29.33 6.97 27.78 8.02 27.78 10.12ZM40.25 7.60C40.25 7.66 40.29 7.67 40.36 7.67C40.42 7.67 41.01 7.66 41.05 7.66C41.15 7.66 41.17 8.05 41.17 8.69L41.17 10.89C41.17 11.83 41.38 12.80 42.74 12.80C43.78 12.80 44.97 12.15 45.00 12.15C45.04 12.15 45.01 12.87 45.09 12.87C45.15 12.87 46.28 12.70 46.76 12.63C46.94 12.60 46.94 12.59 46.94 12.38C46.94 12.29 46.94 12.19 46.86 12.19C46.82 12.19 46.27 12.28 46.24 12.28C46.06 12.28 46.02 12.19 46.02 11.49C46.02 10.63 46.03 7.28 46.03 7.28C46.03 7.20 46.05 7.15 45.89 7.15C45.82 7.15 44.98 7.20 44.27 7.22C44.14 7.22 44.10 7.25 44.09 7.35C44.07 7.39 44.06 7.56 44.06 7.60C44.06 7.64 44.11 7.64 44.17 7.64C44.21 7.64 44.76 7.62 44.87 7.62C44.95 7.62 44.98 9.87 44.98 10.18L44.98 11.83C44.98 11.93 44.23 12.01 43.75 12.01C42.92 12.01 42.24 11.86 42.24 11.12L42.24 7.31C42.24 7.22 42.24 7.18 42.15 7.18C42.08 7.18 40.87 7.22 40.56 7.24C40.39 7.25 40.35 7.24 40.31 7.36C40.28 7.43 40.25 7.55 40.25 7.60ZM54.53 7.71C54.53 7.76 54.56 7.76 54.63 7.76C54.67 7.76 55.38 7.73 55.47 7.73C55.55 7.73 55.58 9.20 55.58 10.33C55.58 11.24 55.57 12.21 55.47 12.21L54.85 12.21C54.68 12.21 54.68 12.29 54.68 12.43C54.68 12.59 54.70 12.67 54.87 12.67C55.29 12.67 55.76 12.64 56.11 12.64C56.52 12.64 57.37 12.67 57.64 12.67C57.82 12.67 57.82 12.56 57.82 12.43C57.82 12.29 57.81 12.21 57.64 12.21L56.71 12.21C56.62 12.21 56.59 11.47 56.59 10.68C56.59 9.46 56.70 7.87 57.34 7.87C57.58 7.87 57.86 8.32 58.17 8.32C58.44 8.32 58.74 7.85 58.74 7.69C58.74 7.49 58.35 7.04 57.90 7.04C57.46 7.04 56.88 7.49 56.56 8.26C56.49 8.40 56.50 8.46 56.50 8.23C56.50 7.98 56.52 7.64 56.52 7.42C56.52 7.29 56.52 7.29 56.35 7.29C56.25 7.29 55.36 7.32 54.84 7.34C54.64 7.34 54.61 7.34 54.59 7.45C54.57 7.52 54.53 7.66 54.53 7.71ZM66.12 7.64C66.12 7.70 66.19 7.70 66.25 7.70C66.30 7.70 66.88 7.67 66.92 7.67C67.02 7.67 67.07 7.66 67.09 7.85C67.13 8.88 67.14 9.87 67.14 10.85C67.14 11.14 67.14 12.21 67.10 12.21L66.40 12.21C66.21 12.21 66.19 12.29 66.19 12.43C66.19 12.59 66.19 12.67 66.36 12.67C66.63 12.67 67.30 12.64 67.65 12.64C68.00 12.64 68.59 12.67 68.85 12.67C69.01 12.67 69.02 12.57 69.02 12.43C69.02 12.28 69.02 12.21 68.85 12.21L68.25 12.21C68.18 12.21 68.18 10.04 68.18 9.70L68.18 7.32C68.18 7.24 68.18 7.20 68.04 7.20C67.97 7.20 67.23 7.24 66.46 7.27C66.29 7.27 66.25 7.27 66.19 7.41C66.15 7.52 66.12 7.60 66.12 7.64ZM66.88 4.86C66.88 5.28 67.19 5.47 67.49 5.47C67.90 5.47 68.39 5.15 68.39 4.65C68.39 4.21 68.07 4.05 67.76 4.05C67.41 4.05 66.88 4.33 66.88 4.86ZM76.61 7.73C76.61 7.77 76.62 7.80 76.68 7.80C76.73 7.80 77.42 7.74 77.46 7.74C77.55 7.74 77.60 7.70 77.62 7.90C77.64 8.33 77.64 8.81 77.64 9.28C77.64 9.73 77.62 12.21 77.53 12.21L76.90 12.21C76.73 12.21 76.72 12.29 76.72 12.43C76.72 12.59 76.72 12.67 76.90 12.67C77.32 12.67 77.83 12.64 78.18 12.64C78.58 12.64 79.09 12.67 79.35 12.67C79.53 12.67 79.53 12.56 79.53 12.43C79.53 12.29 79.53 12.21 79.34 12.21L78.81 12.21C78.68 12.21 78.67 12.21 78.67 11.98C78.67 10.84 78.68 9.67 78.68 8.53C78.68 8.41 78.69 8.36 78.90 8.25C79.18 8.11 79.59 7.85 80.14 7.85C81.19 7.85 81.44 8.62 81.44 9.63C81.44 11.03 81.41 12.21 81.35 12.21L80.75 12.21C80.60 12.21 80.53 12.26 80.53 12.45C80.53 12.61 80.53 12.67 80.74 12.67C81.16 12.67 81.61 12.64 81.96 12.64C82.36 12.64 82.74 12.67 83.01 12.67C83.20 12.67 83.22 12.56 83.22 12.43C83.22 12.25 83.16 12.21 82.98 12.21L82.56 12.21C82.45 12.21 82.45 12.21 82.45 12.08C82.45 11.87 82.52 10.47 82.52 9.70C82.52 8.33 82.26 7.18 80.61 7.18C79.74 7.18 79.23 7.63 78.81 7.90C78.71 7.95 78.65 8.05 78.65 7.90L78.65 7.42C78.65 7.28 78.68 7.21 78.47 7.22C78.06 7.25 77.11 7.31 76.92 7.32C76.72 7.34 76.73 7.35 76.69 7.46C76.66 7.53 76.61 7.67 76.61 7.73ZM90.69 15.02C90.69 16.18 92.16 16.70 93.32 16.70C95.14 16.70 96.45 15.79 96.45 14.34C96.45 12.47 93.56 12.67 91.78 12.56C91.76 12.56 91.62 12.32 91.62 12.18C91.62 12.12 91.63 12.10 91.64 12.10C92.58 11.83 93.42 11.62 94.07 11.37C95.07 10.99 95.70 10.40 95.70 9.20C95.70 8.62 95.54 8.26 95.54 8.20C95.54 8.16 96.17 8.05 96.31 8.04C96.38 8.04 96.39 7.97 96.39 7.91C96.39 7.76 96.32 7.48 96.22 7.48C95.80 7.50 95.26 7.74 95.20 7.74C95.13 7.74 94.53 7.03 93.46 7.03C92.20 7.03 90.96 7.90 90.96 9.16C90.96 10.49 91.73 11.16 92.76 11.45C92.83 11.47 92.89 11.48 92.89 11.49C92.89 11.51 91.49 11.87 91.43 11.89C91.22 11.93 91.15 12.12 91.15 12.38C91.15 12.53 91.17 12.78 91.28 13.06C91.38 13.27 91.64 13.36 91.88 13.36L92.39 13.36C92.68 13.36 92.62 13.36 92.41 13.43C91.71 13.62 90.69 14.11 90.69 15.02ZM91.41 14.92C91.41 14.04 92.51 13.59 93.17 13.59C94.21 13.59 95.56 13.92 95.56 14.67C95.56 15.86 94.36 16.25 93.31 16.25C92.47 16.25 91.41 15.81 91.41 14.92ZM91.94 9.10C91.94 8.19 92.62 7.46 93.39 7.46C94.22 7.46 94.75 8.09 94.75 9.18C94.75 10.43 93.94 11.23 93.42 11.23C93.10 11.23 91.94 10.46 91.94 9.10ZM113.58 7.45C113.58 7.59 113.58 7.67 113.76 7.67L114.04 7.67C114.14 7.67 114.14 7.69 114.21 7.85C114.79 9.25 116.40 12.99 116.40 13.20C116.40 13.34 116.02 14.29 115.78 14.88C115.63 15.26 114.93 15.43 114.55 15.57C114.42 15.61 114.24 15.69 114.14 15.83C114.00 16.03 113.86 16.30 113.86 16.45C113.86 16.59 113.93 16.77 114.16 16.77C114.27 16.77 114.69 16.58 115.04 16.41C115.39 16.24 115.42 16.17 115.63 15.90C116.23 15.16 116.28 14.92 116.54 14.21C116.80 13.44 117.05 12.67 117.10 12.57C117.21 12.29 118.73 8.40 118.96 7.78C119 7.67 119.04 7.67 119.13 7.67L119.34 7.67C119.50 7.67 119.50 7.59 119.50 7.45C119.50 7.28 119.48 7.21 119.32 7.21C119.20 7.21 118.82 7.24 118.51 7.24C118.23 7.24 117.68 7.21 117.57 7.21C117.39 7.21 117.38 7.31 117.38 7.45C117.38 7.59 117.38 7.67 117.56 7.67L118.05 7.67C118.24 7.67 118.30 7.69 118.30 7.76C118.30 7.78 118.30 7.81 118.29 7.87C118.15 8.40 117.50 10.26 117.17 11.24C117.07 11.51 117.00 11.69 116.97 11.69C116.93 11.69 116.86 11.49 116.75 11.24C116.31 10.18 115.50 7.99 115.50 7.77C115.50 7.70 115.63 7.67 115.82 7.67L116.09 7.67C116.26 7.67 116.30 7.59 116.30 7.45C116.30 7.29 116.27 7.21 116.07 7.21C115.86 7.21 115.37 7.24 114.84 7.24C114.44 7.24 113.99 7.21 113.76 7.21C113.60 7.21 113.58 7.32 113.58 7.45ZM126.91 10.04C126.91 11.58 128.07 12.85 129.60 12.85C131.36 12.85 132.40 11.58 132.40 9.84C132.40 8.29 131.38 7.01 129.82 7.01C128.07 7.01 126.91 8.37 126.91 10.04ZM127.99 10.23C127.99 8.69 128.38 7.46 129.65 7.46C130.79 7.46 131.31 8.74 131.31 9.74C131.31 10.92 131.07 12.40 129.60 12.40C128.55 12.40 127.99 11.27 127.99 10.23ZM139.93 7.60C139.93 7.66 139.97 7.67 140.04 7.67C140.10 7.67 140.69 7.66 140.73 7.66C140.83 7.66 140.85 8.05 140.85 8.69L140.85 10.89C140.85 11.83 141.06 12.80 142.42 12.80C143.46 12.80 144.65 12.15 144.68 12.15C144.72 12.15 144.69 12.87 144.77 12.87C144.83 12.87 145.96 12.70 146.44 12.63C146.62 12.60 146.62 12.59 146.62 12.38C146.62 12.29 146.62 12.19 146.54 12.19C146.50 12.19 145.95 12.28 145.92 12.28C145.74 12.28 145.70 12.19 145.70 11.49C145.70 10.63 145.71 7.28 145.71 7.28C145.71 7.20 145.73 7.15 145.57 7.15C145.50 7.15 144.66 7.20 143.95 7.22C143.82 7.22 143.78 7.25 143.77 7.35C143.75 7.39 143.74 7.56 143.74 7.60C143.74 7.64 143.79 7.64 143.85 7.64C143.89 7.64 144.44 7.62 144.55 7.62C144.63 7.62 144.66 9.87 144.66 10.18L144.66 11.83C144.66 11.93 143.91 12.01 143.43 12.01C142.60 12.01 141.92 11.86 141.92 11.12L141.92 7.31C141.92 7.22 141.92 7.18 141.83 7.18C141.76 7.18 140.55 7.22 140.24 7.24C140.07 7.25 140.03 7.24 139.99 7.36C139.96 7.43 139.93 7.55 139.93 7.60ZM154.21 7.71C154.21 7.76 154.24 7.76 154.31 7.76C154.35 7.76 155.06 7.73 155.15 7.73C155.23 7.73 155.26 9.20 155.26 10.33C155.26 11.24 155.25 12.21 155.15 12.21L154.53 12.21C154.36 12.21 154.36 12.29 154.36 12.43C154.36 12.59 154.38 12.67 154.55 12.67C154.97 12.67 155.44 12.64 155.79 12.64C156.20 12.64 157.05 12.67 157.32 12.67C157.50 12.67 157.50 12.56 157.50 12.43C157.50 12.29 157.49 12.21 157.32 12.21L156.39 12.21C156.30 12.21 156.27 11.47 156.27 10.68C156.27 9.46 156.38 7.87 157.02 7.87C157.26 7.87 157.54 8.32 157.85 8.32C158.12 8.32 158.42 7.85 158.42 7.69C158.42 7.49 158.03 7.04 157.58 7.04C157.14 7.04 156.56 7.49 156.24 8.26C156.17 8.40 156.18 8.46 156.18 8.23C156.18 7.98 156.20 7.64 156.20 7.42C156.20 7.29 156.20 7.29 156.03 7.29C155.93 7.29 155.04 7.32 154.52 7.34C154.32 7.34 154.29 7.34 154.27 7.45C154.25 7.52 154.21 7.66 154.21 7.71ZM175.63 7.45C175.63 7.59 175.63 7.67 175.83 7.67L176.05 7.67C176.18 7.67 176.22 7.69 176.27 7.85C176.82 9.45 177.59 11.56 177.73 12.04C177.81 12.31 178.00 12.99 178.21 12.99C178.25 12.99 178.36 12.96 178.42 12.87C178.74 12.29 178.86 12.35 179.09 11.87C179.49 11.03 179.91 9.83 180.26 8.90C180.29 8.83 180.32 8.78 180.35 8.78C180.38 8.78 180.39 8.85 180.42 8.90C180.84 10.14 181.29 11.70 181.38 12.04C181.45 12.31 181.61 12.99 181.85 12.99C181.90 12.99 181.99 12.96 182.04 12.87C182.36 12.32 182.46 12.36 182.69 11.89C183.32 10.57 184.02 8.37 184.31 7.81C184.37 7.70 184.42 7.67 184.52 7.67L184.60 7.67C184.76 7.67 184.79 7.59 184.79 7.45C184.79 7.29 184.76 7.21 184.62 7.21C184.52 7.21 184.17 7.24 183.86 7.24C183.58 7.24 183.13 7.21 183.02 7.21C182.84 7.21 182.83 7.31 182.83 7.45C182.83 7.59 182.84 7.67 183.01 7.67L183.48 7.67C183.60 7.67 183.60 7.76 183.60 7.84C183.60 8.15 182.74 10.70 182.43 11.42C182.38 11.55 182.35 11.62 182.32 11.62C182.29 11.62 182.25 11.56 182.20 11.41C181.83 10.49 181.09 7.92 181.06 7.78C181.06 7.73 181.05 7.67 181.19 7.67L181.48 7.67C181.65 7.67 181.69 7.59 181.69 7.45C181.69 7.29 181.69 7.21 181.50 7.21C181.15 7.21 180.85 7.24 180.49 7.24C180.01 7.24 179.79 7.21 179.44 7.21C179.24 7.21 179.24 7.32 179.24 7.45C179.24 7.59 179.26 7.67 179.44 7.67L179.61 7.67C179.82 7.67 179.96 7.69 180.04 7.85C180.10 7.97 180.11 7.98 180.11 8.06C180.11 8.15 180.08 8.25 180.01 8.43C179.72 9.27 179.16 10.64 178.89 11.31C178.84 11.45 178.81 11.54 178.77 11.54C178.74 11.54 178.71 11.49 178.67 11.41C178.28 10.49 177.45 7.87 177.45 7.77C177.45 7.73 177.49 7.67 177.65 7.67L178.02 7.67C178.19 7.67 178.21 7.59 178.21 7.45C178.21 7.29 178.21 7.21 178.01 7.21C177.76 7.21 177.14 7.24 176.79 7.24C176.39 7.24 176.09 7.21 175.83 7.21C175.63 7.21 175.63 7.32 175.63 7.45ZM192.18 10.04C192.18 11.58 193.34 12.85 194.87 12.85C196.63 12.85 197.67 11.58 197.67 9.84C197.67 8.29 196.64 7.01 195.09 7.01C193.34 7.01 192.18 8.37 192.18 10.04ZM193.26 10.23C193.26 8.69 193.65 7.46 194.92 7.46C196.06 7.46 196.57 8.74 196.57 9.74C196.57 10.92 196.34 12.40 194.87 12.40C193.82 12.40 193.26 11.27 193.26 10.23ZM205.34 7.71C205.34 7.76 205.37 7.76 205.44 7.76C205.48 7.76 206.19 7.73 206.28 7.73C206.36 7.73 206.39 9.20 206.39 10.33C206.39 11.24 206.37 12.21 206.28 12.21L205.66 12.21C205.49 12.21 205.49 12.29 205.49 12.43C205.49 12.59 205.51 12.67 205.67 12.67C206.09 12.67 206.57 12.64 206.92 12.64C207.33 12.64 208.18 12.67 208.45 12.67C208.63 12.67 208.63 12.56 208.63 12.43C208.63 12.29 208.61 12.21 208.45 12.21L207.52 12.21C207.42 12.21 207.40 11.47 207.40 10.68C207.40 9.46 207.51 7.87 208.15 7.87C208.39 7.87 208.67 8.32 208.98 8.32C209.24 8.32 209.55 7.85 209.55 7.69C209.55 7.49 209.16 7.04 208.71 7.04C208.26 7.04 207.69 7.49 207.37 8.26C207.30 8.40 207.31 8.46 207.31 8.23C207.31 7.98 207.33 7.64 207.33 7.42C207.33 7.29 207.33 7.29 207.16 7.29C207.06 7.29 206.16 7.32 205.65 7.34C205.45 7.34 205.42 7.34 205.39 7.45C205.38 7.52 205.34 7.66 205.34 7.71ZM216.73 3.51C216.73 3.64 216.75 3.65 216.89 3.65C217.01 3.65 217.64 3.61 217.69 3.61C217.78 3.61 217.80 6.80 217.80 9.30L217.80 12.00C217.80 12.21 217.80 12.21 217.69 12.21L217.07 12.21C216.90 12.21 216.90 12.29 216.90 12.43C216.90 12.59 216.90 12.67 217.08 12.67C217.24 12.67 217.80 12.64 218.26 12.64C218.67 12.64 218.99 12.67 219.25 12.67C219.42 12.67 219.44 12.57 219.44 12.47C219.44 12.29 219.44 12.21 219.25 12.21L218.81 12.21C218.78 12.21 218.78 11.77 218.78 11.30L218.78 10.12C218.78 9.95 218.81 9.94 218.89 9.94L219.06 9.94C219.18 9.94 219.20 9.95 219.37 10.16L220.91 12.07C220.98 12.17 221.00 12.21 220.86 12.21L220.68 12.21C220.51 12.21 220.50 12.29 220.50 12.43C220.50 12.59 220.50 12.67 220.68 12.67C220.88 12.67 221.33 12.64 221.68 12.64C222.03 12.64 222.45 12.67 222.64 12.67C222.84 12.67 222.84 12.59 222.84 12.43C222.84 12.26 222.84 12.21 222.64 12.21L222.47 12.21C222.36 12.21 222.33 12.21 222.19 12.04L220.08 9.59C219.97 9.45 219.94 9.48 220.08 9.31C220.37 8.96 221.47 7.60 221.59 7.60L222.04 7.60C222.21 7.60 222.22 7.52 222.22 7.38C222.22 7.21 222.18 7.14 222.05 7.14C221.84 7.14 221.55 7.17 221.19 7.17C220.82 7.17 220.46 7.14 220.32 7.14C220.14 7.14 220.12 7.24 220.12 7.38C220.12 7.52 220.12 7.60 220.30 7.60L220.64 7.60C220.78 7.60 220.84 7.62 220.74 7.76C220.42 8.29 220.04 8.82 219.65 9.34C219.55 9.48 219.45 9.63 219.27 9.63L218.96 9.63C218.79 9.63 218.78 9.62 218.78 9.49L218.93 3.25C218.93 3.08 218.95 3.02 218.82 3.02C218.74 3.02 217.43 3.12 216.90 3.16C216.75 3.18 216.73 3.25 216.73 3.36ZM230.23 7.73C230.23 7.78 230.26 7.78 230.36 7.78C230.41 7.78 231.01 7.76 231.17 7.76C231.31 7.76 231.34 7.73 231.35 7.91C231.39 8.48 231.45 8.92 231.45 11.93L231.45 13.92C231.45 14.83 231.45 16.11 231.41 16.11L230.65 16.11C230.48 16.11 230.47 16.20 230.47 16.34C230.47 16.49 230.48 16.58 230.65 16.58C231.07 16.58 231.70 16.55 232.05 16.55C232.46 16.55 233.30 16.58 233.56 16.58C233.74 16.58 233.76 16.46 233.76 16.34C233.76 16.20 233.76 16.11 233.56 16.11L232.58 16.11C232.54 16.11 232.53 15.68 232.51 15.22L232.47 12.71C232.47 12.57 232.47 12.53 232.50 12.53C232.54 12.53 233.09 12.77 233.69 12.77C235.55 12.77 236.66 11.31 236.66 9.88C236.66 8.39 235.86 7.20 234.22 7.20C233.62 7.20 233.02 7.49 232.68 7.73C232.58 7.80 232.46 7.92 232.46 7.76L232.46 7.48C232.46 7.27 232.39 7.24 232.26 7.24C232.20 7.24 231.29 7.29 230.36 7.32C230.30 7.32 230.23 7.71 230.23 7.73ZM232.47 11.91L232.47 8.32C232.47 8.30 232.48 8.16 232.90 7.95C233.11 7.85 233.39 7.77 233.79 7.77C234.79 7.77 235.56 8.62 235.56 9.98C235.56 11.09 234.92 12.42 233.65 12.42C233.21 12.42 232.47 12.15 232.47 11.91ZM244.26 3.58C244.26 3.65 244.27 3.65 244.33 3.65C244.38 3.65 244.97 3.60 245.06 3.60C245.13 3.60 245.18 3.57 245.21 3.82C245.32 5.07 245.36 10.37 245.36 11.06C245.36 11.44 245.36 12.21 245.29 12.21L244.58 12.21C244.43 12.21 244.41 12.29 244.41 12.43C244.41 12.59 244.43 12.67 244.59 12.67C245.01 12.67 245.59 12.64 245.94 12.64C246.34 12.64 246.83 12.67 247.10 12.67C247.27 12.67 247.27 12.60 247.27 12.43C247.27 12.28 247.27 12.21 247.10 12.21L246.50 12.21C246.44 12.21 246.43 12.05 246.43 11.70C246.43 8.89 246.36 7.62 246.34 3.32C246.34 3.16 246.34 3.07 246.20 3.07C246.12 3.07 245.03 3.15 244.47 3.19C244.36 3.21 244.33 3.19 244.30 3.32C244.27 3.42 244.26 3.57 244.26 3.58ZM255.08 11.61C255.08 12.35 255.61 12.84 256.49 12.84C257.11 12.84 257.82 12.45 258.23 12.19C258.33 12.14 258.34 12.11 258.38 12.24C258.47 12.46 258.52 12.88 258.97 12.88C259.07 12.88 259.31 12.74 259.56 12.56C259.90 12.31 260.27 12.04 260.27 12.01C260.27 11.93 260.12 11.73 260.05 11.73C260.02 11.73 259.60 12.08 259.49 12.08C259.45 12.08 259.24 12.01 259.24 11.70C259.24 11.40 259.32 9.56 259.32 8.85C259.32 7.73 258.89 6.97 257.45 6.97C256.52 6.97 255.28 7.67 255.28 8.85C255.28 9.00 255.33 9.11 255.40 9.11C255.47 9.11 255.98 8.86 256.21 8.69C256.30 8.64 256.31 8.50 256.31 8.41C256.31 7.84 256.34 7.63 256.72 7.48C256.84 7.42 257.01 7.39 257.15 7.39C258.31 7.39 258.33 8.32 258.33 9.31C258.33 9.44 258.33 9.48 258.26 9.49C256.87 9.73 255.08 10.32 255.08 11.61ZM256.14 11.21C256.14 10.58 256.77 10.22 257.43 10.01C257.82 9.88 258.24 9.80 258.29 9.80C258.31 9.80 258.33 9.81 258.33 9.91L258.33 11.75C258.33 11.84 257.54 12.14 257.01 12.14C256.45 12.14 256.14 11.65 256.14 11.21ZM267.95 10.12C267.95 11.73 268.97 12.78 270.63 12.78C272.02 12.78 272.89 11.90 272.89 11.82C272.89 11.68 272.85 11.66 272.75 11.66C272.68 11.66 272.02 12.08 271.05 12.08C269.64 12.08 268.94 10.93 268.94 9.77C268.94 8.68 269.63 7.43 270.79 7.43C271.64 7.43 271.67 8.04 271.89 8.68C271.94 8.82 272.05 8.86 272.17 8.86C272.31 8.86 272.50 8.76 272.62 8.67C272.75 8.57 272.78 8.48 272.78 8.36C272.78 7.60 271.80 6.97 270.87 6.97C269.50 6.97 267.95 8.02 267.95 10.12ZM280.66 10.01C280.66 11.68 281.62 12.85 283.39 12.85C284.84 12.85 285.84 11.56 285.84 11.48C285.84 11.45 285.60 11.24 285.56 11.24C285.47 11.24 284.89 12.15 283.71 12.15C282.70 12.15 281.71 11.33 281.71 9.88C281.71 9.72 281.72 9.49 281.75 9.42C281.96 9.42 284.72 9.49 284.87 9.49C285.01 9.49 285.67 9.46 285.67 9.28C285.67 8.09 284.96 7.01 283.54 7.01C281.83 7.01 280.66 8.33 280.66 10.01ZM281.78 9.03C281.83 8.34 282.48 7.41 283.37 7.41C283.81 7.41 284.62 7.70 284.62 8.99C284.62 9.04 284.45 9.03 284.10 9.04C283.40 9.07 281.97 9.10 281.90 9.10C281.79 9.10 281.78 9.09 281.78 9.03Z"></path></g></svg>