<svg data-v-423bf9ae="" xmlns="http://www.w3.org/2000/svg" viewBox="0 0 320.65350750692426 60" class="font"><!----><!----><!----><g data-v-423bf9ae="" id="ef6b7d56-c008-4051-b3b5-8d29324a11e6" fill="white" transform="matrix(4.559270569581267,0,0,4.559270569581267,-3.237083156979452,-2.0516725828957405)"><path d="M3.63 3.36C1.54 3.36 0.71 4.34 0.71 6.87C0.71 9.62 1.37 10.64 3.60 10.64C4.24 10.64 5.54 10.44 5.54 10.44L5.50 9.58C5.50 9.58 4.38 9.70 3.85 9.70C2.11 9.70 1.79 8.95 1.79 6.87C1.79 5.00 2.23 4.30 3.84 4.30C4.37 4.30 5.49 4.42 5.49 4.42L5.53 3.57C5.53 3.57 4.27 3.36 3.63 3.36ZM7.20 10.50L8.25 10.50L8.25 0.45L7.20 0.45ZM13.03 3.36C10.82 3.36 10.04 4.51 10.04 6.92C10.04 9.46 10.68 10.64 13.03 10.64C15.40 10.64 16.03 9.46 16.03 6.92C16.03 4.51 15.26 3.36 13.03 3.36ZM13.03 9.73C11.38 9.73 11.12 8.90 11.12 6.92C11.12 4.97 11.55 4.27 13.03 4.27C14.53 4.27 14.95 4.97 14.95 6.92C14.95 8.90 14.70 9.73 13.03 9.73ZM22.11 3.50L22.11 9.18C22.11 9.18 21.22 9.70 20.19 9.70C18.89 9.70 18.72 9.07 18.72 7.14L18.72 3.50L17.67 3.50L17.67 7.15C17.67 9.73 18.07 10.64 20.03 10.64C21.06 10.64 22.11 10.01 22.11 10.01L22.11 10.50L23.16 10.50L23.16 3.50ZM30.55 0.45L29.51 0.45L29.51 3.54C29.30 3.50 28.39 3.36 27.79 3.36C25.66 3.36 24.86 4.59 24.86 7.06C24.86 10.08 26.01 10.64 27.38 10.64C28.43 10.64 29.51 10.02 29.51 10.02L29.51 10.50L30.55 10.50ZM27.51 9.70C26.68 9.70 25.94 9.32 25.94 7.06C25.94 5.24 26.38 4.27 27.85 4.27C28.42 4.27 29.29 4.40 29.51 4.44L29.51 9.18C29.51 9.18 28.50 9.70 27.51 9.70ZM37.25 3.63C37.25 3.63 35.77 3.36 34.72 3.36C33.45 3.36 32.20 3.86 32.20 5.40C32.20 6.80 32.96 7.10 34.54 7.35C36.06 7.59 36.43 7.77 36.43 8.50C36.43 9.45 35.81 9.70 34.66 9.70C33.95 9.70 32.35 9.46 32.35 9.46L32.30 10.37C32.30 10.37 33.87 10.64 34.76 10.64C36.44 10.64 37.48 10.09 37.48 8.46C37.48 7.10 36.82 6.75 35.07 6.45C33.59 6.20 33.25 6.02 33.25 5.36C33.25 4.54 33.91 4.30 34.78 4.30C35.67 4.30 37.23 4.52 37.23 4.52ZM41.41 10.64C42.41 10.64 43.39 10.18 43.39 10.18L43.39 13.61L44.42 13.61L44.42 3.50C44.42 3.50 42.81 3.36 42.08 3.36C39.62 3.36 38.78 4.35 38.78 7.11C38.78 9.59 39.51 10.64 41.41 10.64ZM42.10 4.27C42.52 4.27 43.39 4.35 43.39 4.35L43.39 9.30C43.39 9.30 42.49 9.70 41.52 9.70C40.29 9.70 39.84 8.86 39.84 7.11C39.84 5.18 40.26 4.27 42.10 4.27ZM50.82 3.50L50.82 9.18C50.82 9.18 49.94 9.70 48.90 9.70C47.60 9.70 47.43 9.07 47.43 7.14L47.43 3.50L46.38 3.50L46.38 7.15C46.38 9.73 46.79 10.64 48.75 10.64C49.77 10.64 50.82 10.01 50.82 10.01L50.82 10.50L51.87 10.50L51.87 3.50ZM58.83 5.61C58.83 4.09 58.16 3.36 56.57 3.36C55.37 3.36 53.83 3.67 53.83 3.67L53.87 4.47C53.87 4.47 55.54 4.28 56.52 4.28C57.36 4.28 57.78 4.63 57.78 5.61L57.78 6.22L55.58 6.43C54.14 6.57 53.44 7.15 53.44 8.50C53.44 9.91 54.14 10.64 55.41 10.64C56.67 10.64 57.93 10.08 57.93 10.08C58.35 10.50 58.86 10.64 59.60 10.64L59.64 9.81C59.19 9.76 58.86 9.60 58.83 9.20ZM57.78 7.01L57.78 9.32C57.78 9.32 56.62 9.76 55.58 9.76C54.87 9.76 54.52 9.28 54.52 8.47C54.52 7.70 54.85 7.29 55.71 7.21ZM60.90 10.50L61.95 10.50L61.95 5.36C61.95 5.36 63.18 4.68 64.50 4.41L64.50 3.35C63.15 3.61 61.94 4.45 61.94 4.45L61.94 3.50L60.90 3.50ZM68.19 9.72C66.82 9.72 66.36 8.93 66.36 7.43L70.98 7.43L71.04 6.64C71.04 4.34 70.08 3.36 68.22 3.36C66.44 3.36 65.30 4.38 65.30 7.04C65.30 9.42 65.98 10.64 68.07 10.64C69.20 10.64 70.80 10.42 70.80 10.42L70.77 9.59C70.77 9.59 69.24 9.72 68.19 9.72ZM66.35 6.59C66.36 4.90 67.03 4.24 68.22 4.24C69.45 4.24 69.99 4.86 69.99 6.59Z"></path></g><!----><!----></svg>